<svg t="1692086444948" class="icon" viewBox="0 0 1024 1024" version="1.1" xmlns="http://www.w3.org/2000/svg" p-id="4750" width="200" height="200"><path d="M851.8 65H172.7c-59.3 0-107.9 48.5-107.9 107.9V852c0 59.3 48.5 107.9 107.9 107.9h679.1c59.3 0 107.9-48.5 107.9-107.9V173c0-59.3-48.6-108-107.9-108zM722.4 734.9c0 16.4-13.1 32.8-32.8 32.8H335.3c-16.4 0-32.8-13.1-32.8-32.8V485.6c0-16.4 13.1-32.8 32.8-32.8h39.4v-68.9c0-75.5 62.3-127.9 137.8-127.9 65.6 0 118.1 36.1 134.5 95.1h-55.8c-13.1-26.2-42.6-45.9-78.7-45.9-45.9 0-85.3 32.8-85.3 72.2v75.5h269c16.4 3.3 26.2 16.4 26.2 32.8v249.2z" p-id="4751" fill="#8a8a8a"></path><path d="M512.5 538.1c-23 0-42.6 19.7-42.6 42.6 0 16.4 9.8 29.5 26.2 36.1v55.8s0 3.3 3.3 3.3h29.5s3.3 0 3.3-3.3v-55.8c13.1-6.6 23-19.7 23-36.1-0.1-22.9-19.8-42.6-42.7-42.6z" p-id="4752" fill="#8a8a8a"></path></svg>